<svg width="508.5" height="508.5" xmlns="http://www.w3.org/2000/svg" data-name="Calque 1">
 <defs>
  <linearGradient y2="0.49999" x2="1" y1="0.49999" x1="0" id="Dégradé_sans_nom_48">
   <stop stop-color="#ee2238" offset="0"/>
   <stop stop-color="#bf1d67" offset="1"/>
  </linearGradient>
 </defs>
 <g>
  <title>Layer 1</title>
  <path id="svg_1" fill="url(#Dégradé_sans_nom_48)" d="m508.5,254.25q0,9.66 -0.71,19.13a253.26,253.26 0 0 1 -13.73,65.51c-34.88,98.83 -129.08,169.62 -239.81,169.62c-140.42,0 -254.25,-113.84 -254.25,-254.26q0,-9.37 0.67,-18.61c0,-0.37 0.05,-0.75 0.09,-1.12a252.8,252.8 0 0 1 12.86,-62.57c0.3,-0.87 0.6,-1.74 0.91,-2.6c34.94,-98.67 129.08,-169.35 239.72,-169.35c140.42,0 254.25,113.89 254.25,254.25z" class="cls-1"/>
  <path id="svg_2" fill="#fff" d="m507.77499,274.69995a253.26,253.26 0 0 1 -13.72,65.51l-316,57.58l-6.7,1.22a38.24,38.24 0 0 1 -6.83,0.63a32.56,32.56 0 0 1 -6.22,-0.58l-0.08,0a39.7,39.7 0 0 1 -20.45,-10.76a39.3,39.3 0 0 1 -8.06,-44.46a40.21,40.21 0 0 1 3.24,-5.71l0,0l0,0l154.1,-154.11l-286,51.84l-0.33,0.06a252.8,252.8 0 0 1 12.86,-62.57c0.3,-0.87 0.6,-1.74 0.91,-2.6l326.8,-59.63l9.65,-1.75a32.13,32.13 0 0 1 11.12,-0.05a40,40 0 0 1 32.28,32.06a39.79,39.79 0 0 1 -10.54,34.73l0,0l-1.51,1.5l-148.52,147.04l274,-49.95z" class="cls-2"/>
 </g>
</svg>