<?xml version="1.0" standalone="no"?>
<!DOCTYPE svg PUBLIC "-//W3C//DTD SVG 20010904//EN"
 "http://www.w3.org/TR/2001/REC-SVG-20010904/DTD/svg10.dtd">
<svg version="1.0" xmlns="http://www.w3.org/2000/svg"
 width="700.000000pt" height="700.000000pt" viewBox="0 0 700.000000 700.000000"
 preserveAspectRatio="xMidYMid meet">
<metadata>
Created by potrace 1.14, written by Peter Selinger 2001-2017
</metadata>
<g transform="translate(0.000000,700.000000) scale(0.100000,-0.100000)"
fill="#000000" stroke="none">
<path d="M3298 6995 c-1 -1 -46 -5 -99 -9 -53 -4 -104 -8 -115 -10 -10 -2 -41
-7 -69 -10 -88 -13 -139 -21 -245 -42 -303 -60 -705 -213 -1000 -382 -86 -49
-301 -187 -339 -218 -9 -7 -52 -41 -96 -75 -203 -158 -431 -388 -596 -599
-404 -519 -661 -1160 -723 -1805 -12 -132 -14 -588 -3 -660 3 -16 8 -59 12
-95 15 -133 26 -202 60 -360 21 -96 91 -339 114 -395 5 -11 25 -65 46 -120 64
-170 213 -461 314 -615 271 -411 605 -747 1008 -1016 77 -52 145 -94 149 -94
4 0 15 -6 23 -14 9 -7 81 -47 161 -88 307 -157 609 -262 930 -323 96 -18 123
-23 179 -31 25 -3 57 -8 71 -10 193 -30 697 -24 907 10 21 4 53 8 70 11 128
15 394 81 573 142 560 190 1095 545 1479 982 31 35 63 71 71 80 29 31 147 187
202 266 166 238 339 581 444 880 61 172 116 417 150 670 18 133 26 577 14 710
-16 161 -21 210 -25 225 -2 8 -7 35 -10 60 -17 129 -80 384 -136 552 -203 604
-585 1165 -1064 1563 -33 28 -62 53 -65 56 -4 5 -138 102 -270 196 -110 79
-423 244 -600 316 -215 88 -570 187 -760 212 -19 3 -46 7 -60 10 -13 2 -52 7
-86 11 -33 3 -74 8 -90 10 -33 5 -520 14 -526 9z"/>
</g>
</svg>
