<?xml version="1.0" standalone="no"?>
<!DOCTYPE svg PUBLIC "-//W3C//DTD SVG 20010904//EN"
 "http://www.w3.org/TR/2001/REC-SVG-20010904/DTD/svg10.dtd">
<svg version="1.0" xmlns="http://www.w3.org/2000/svg"
 width="700.000000pt" height="700.000000pt" viewBox="0 0 700.000000 700.000000"
 preserveAspectRatio="xMidYMid meet">
<metadata>
Created by potrace 1.14, written by Peter Selinger 2001-2017
</metadata>
<g transform="translate(0.000000,700.000000) scale(0.100000,-0.100000)"
fill="#000000" stroke="none">
<path d="M3328 6995 c-2 -1 -48 -5 -103 -9 -55 -3 -111 -8 -125 -10 -14 -3
-47 -7 -75 -11 -27 -3 -88 -13 -135 -21 -47 -9 -96 -18 -110 -20 -14 -3 -52
-12 -85 -20 -33 -9 -67 -17 -75 -19 -247 -53 -683 -239 -957 -409 -838 -518
-1432 -1383 -1602 -2334 -11 -62 -23 -141 -27 -175 -3 -34 -8 -64 -9 -67 -2
-3 -7 -52 -11 -110 -15 -189 -8 -588 11 -685 2 -11 7 -45 10 -75 27 -263 135
-652 257 -928 180 -406 418 -753 738 -1072 270 -271 523 -458 854 -630 358
-188 807 -330 1148 -366 34 -3 66 -8 69 -10 3 -1 54 -6 115 -10 203 -14 538
-8 689 12 282 38 454 76 665 144 1050 341 1882 1156 2240 2195 127 371 184
715 184 1125 0 223 -17 460 -39 550 0 3 -4 26 -8 51 -13 82 -18 103 -38 194
-12 50 -32 127 -45 172 -14 45 -27 90 -29 100 -4 22 -62 181 -105 288 -99 248
-279 560 -458 790 -192 247 -490 535 -733 707 -355 251 -718 422 -1149 542
-30 8 -66 17 -80 20 -14 2 -57 11 -96 20 -40 8 -103 20 -140 26 -38 6 -80 13
-94 15 -14 2 -50 7 -80 10 -30 3 -77 8 -105 11 -47 6 -462 13 -467 9z"/>
</g>
</svg>
